<svg xmlns="http://www.w3.org/2000/svg" width="168" height="168" viewBox="0 0 168 168"><circle fill="none" stroke="#228BAF" stroke-width="20" stroke-miterlimit="10" cx="85.089" cy="85.089" r="68.089"/><circle fill="#F9A737" cx="85.089" cy="85.089" r="68.089"/><linearGradient id="a" gradientUnits="userSpaceOnUse" x1="3010.899" y1="-28.98" x2="3010.899" y2="54.395" gradientTransform="matrix(-1 0 0 1 3095.988 96.98)"><stop offset="0" stop-color="#fff" stop-opacity="0"/><stop offset="1" stop-color="#fff" stop-opacity=".5"/></linearGradient><path fill="url(#a)" d="M17 83.288C17 78.681 47.483 68 85.088 68c37.605 0 68.09 12.33 68.09 15.288 0 37.604-30.482 68.088-68.09 68.088C47.485 151.376 17 120.891 17 83.288z"/><!-- junior: botó Reptes de la portada (premut) --><g transform="translate(10 25) scale(1.5)"><path d="M34 14v52" stroke="#fff" stroke-width="10" stroke-linecap="round"/><path d="M36 14h30l-7 11 7 11H36z" fill="#fff" stroke="#fff" stroke-width="8" stroke-linejoin="round"/><path d="M34 14v52" stroke="#966020" stroke-width="5" stroke-linecap="round"/><path d="M36 14h30l-7 11 7 11H36z" fill="#2b8a3e"/><path d="M44 20l2 4.2 4.6.6-3.4 3.2.9 4.5-4.1-2.2-4.1 2.2.9-4.5-3.4-3.2 4.6-.6z" fill="#ffd43b"/></g></svg>